<?xml version="1.0" standalone="no"?>
<!DOCTYPE svg PUBLIC "-//W3C//DTD SVG 20010904//EN"
 "http://www.w3.org/TR/2001/REC-SVG-20010904/DTD/svg10.dtd">
<svg version="1.0" xmlns="http://www.w3.org/2000/svg"
 width="283.000000pt" height="282.000000pt" viewBox="0 0 283.000000 282.000000"
 preserveAspectRatio="xMidYMid meet">

<g transform="translate(0.000000,282.000000) scale(0.100000,-0.100000)"
fill="#000000" stroke="none">
<path d="M1150 2399 c-131 -9 -217 -32 -340 -91 -93 -45 -115 -61 -200 -147
-83 -83 -103 -110 -148 -201 -30 -59 -64 -149 -79 -205 -25 -93 -27 -115 -27
-310 0 -196 2 -217 27 -310 15 -55 50 -147 78 -204 43 -88 64 -116 137 -190
119 -118 140 -134 229 -172 115 -47 204 -69 333 -78 480 -36 769 95 846 382 7
28 14 64 14 80 l0 27 89 0 89 0 77 -218 c42 -120 80 -224 84 -230 5 -9 40 -12
123 -10 l116 3 -338 889 c-186 488 -342 892 -347 897 -14 14 -188 57 -296 74
-114 17 -323 23 -467 14z m355 -229 c39 -12 73 -25 78 -29 5 -5 -184 -526
-196 -538 -6 -5 -152 30 -220 54 -139 48 -189 114 -189 251 0 129 59 214 188
268 54 23 69 25 164 20 69 -3 129 -12 175 -26z m293 -158 c18 -14 62 -122 173
-421 82 -222 149 -405 149 -407 0 -2 -24 -4 -54 -4 l-53 0 -18 48 c-29 74 -72
138 -128 188 -50 44 -183 116 -239 129 -16 4 -28 12 -28 19 -1 16 164 466 170
466 3 0 15 -8 28 -18z m-1065 -95 c-7 -61 14 -183 41 -243 61 -133 183 -214
416 -275 74 -19 104 -31 102 -40 -6 -29 -235 -624 -243 -633 -10 -11 -119 28
-173 62 -92 58 -179 176 -221 300 -39 116 -49 188 -48 362 0 171 11 249 52
365 18 51 67 145 75 145 2 0 1 -19 -1 -43z m890 -639 c32 -17 70 -45 84 -62
l26 -31 -133 -3 c-73 -1 -135 -1 -137 2 -5 5 11 59 34 113 12 30 15 32 40 22
15 -6 54 -24 86 -41z m143 -340 c-17 -103 -84 -160 -250 -214 -72 -22 -236
-45 -236 -32 0 5 50 148 86 246 l16 42 195 0 196 0 -7 -42z"/>
</g>
</svg>
